<?xml version="1.0" encoding="utf-8"?>
<svg width="1600px" height="1600px" viewBox="0 0 3844 3844" version="1.1" xmlns:xlink="http://www.w3.org/1999/xlink" xmlns="http://www.w3.org/2000/svg">
  <defs>
    <path d="M0 0L3844 0L3844 3844L0 3844L0 0Z" id="path_1" />
    <clipPath id="mask_1">
      <use xlink:href="#path_1" />
    </clipPath>
  </defs>
  <g id="Rectangle-Mask">
    <path d="M0 0L3844 0L3844 3844L0 3844L0 0Z" id="Mask" fill="none" fill-rule="evenodd" stroke="none" />
    <g clip-path="url(#mask_1)">
      <g id="Mask" transform="translate(-0.007598877 0)">
        <path d="M0.00760597 4L0.00760551 4.19602e-05L2000.01 0L2000.01 3.99996L0.00760597 4Z" id="Rectangle-9" fill="#639cb4" fill-rule="evenodd" stroke="none" />
        <path d="M0.00760597 128L0.00760551 124L2000.01 124L2000.01 128L0.00760597 128Z" id="Rectangle-10" fill="#639cb4" fill-rule="evenodd" stroke="none" />
        <path d="M0.00760597 252L0.00760551 248L2000.01 248L2000.01 252L0.00760597 252Z" id="Rectangle-11" fill="#639cb4" fill-rule="evenodd" stroke="none" />
        <path d="M0.00760597 376L0.00760551 372L2000.01 372L2000.01 376L0.00760597 376Z" id="Rectangle-12" fill="#639cb4" fill-rule="evenodd" stroke="none" />
        <path d="M0.00760597 500L0.00760551 496L2000.01 496L2000.01 500L0.00760597 500Z" id="Rectangle-13" fill="#639cb4" fill-rule="evenodd" stroke="none" />
        <path d="M0.00760597 624L0.00760551 620L2000.01 620L2000.01 624L0.00760597 624Z" id="Rectangle-14" fill="#639cb4" fill-rule="evenodd" stroke="none" />
        <path d="M0.00760597 748L0.00760551 744L2000.01 744L2000.01 748L0.00760597 748Z" id="Rectangle-9-Copy" fill="#639cb4" fill-rule="evenodd" stroke="none" />
        <path d="M0.00760597 872L0.00760551 868L2000.01 868L2000.01 872L0.00760597 872Z" id="Rectangle-10-Copy" fill="#639cb4" fill-rule="evenodd" stroke="none" />
        <path d="M0.00760597 1120L0.00760551 1116L2000.01 1116L2000.01 1120L0.00760597 1120Z" id="Rectangle-12-Copy" fill="#639cb4" fill-rule="evenodd" stroke="none" />
        <path d="M0.00760597 1244L0.00760551 1240L2000.01 1240L2000.01 1244L0.00760597 1244Z" id="Rectangle-13-Copy" fill="#639cb4" fill-rule="evenodd" stroke="none" />
        <path d="M0.00760597 1368L0.00760551 1364L2000.01 1364L2000.01 1368L0.00760597 1368Z" id="Rectangle-14-Copy" fill="#639cb4" fill-rule="evenodd" stroke="none" />
        <path d="M0.00760597 1492L0.00760551 1488L2000.01 1488L2000.01 1492L0.00760597 1492Z" id="Rectangle-9-Copy-2" fill="#639cb4" fill-rule="evenodd" stroke="none" />
        <path d="M0.00760597 1616L0.00760551 1612L2000.01 1612L2000.01 1616L0.00760597 1616Z" id="Rectangle-10-Copy-2" fill="#639cb4" fill-rule="evenodd" stroke="none" />
        <path d="M0.00760597 1740L0.00760551 1736L2000.01 1736L2000.01 1740L0.00760597 1740Z" id="Rectangle-11-Copy-2" fill="#639cb4" fill-rule="evenodd" stroke="none" />
        <path d="M0.00760597 1864L0.00760551 1860L2000.01 1860L2000.01 1864L0.00760597 1864Z" id="Rectangle-12-Copy-2" fill="#639cb4" fill-rule="evenodd" stroke="none" />
        <path d="M1860.02 1.00169L1864.02 1.00171L1864.01 2001L1860.01 2001L1860.02 1.00169Z" id="Rectangle-11-Copy-5" fill="#639cb4" fill-rule="evenodd" stroke="none" />
        <path d="M1736.02 1.00121L1740.02 1.00122L1740.01 2001L1736.01 2001L1736.02 1.00121Z" id="Rectangle-12-Copy-5" fill="#639cb4" fill-rule="evenodd" stroke="none" />
        <path d="M1612.02 1.00072L1616.02 1.00073L1616.01 2001L1612.01 2001L1612.02 1.00072Z" id="Rectangle-13-Copy-5" fill="#639cb4" fill-rule="evenodd" stroke="none" />
        <path d="M1488.02 1.00035L1492.02 1.00037L1492.01 2001L1488.01 2001L1488.02 1.00035Z" id="Rectangle-14-Copy-5" fill="#639cb4" fill-rule="evenodd" stroke="none" />
        <path d="M1364.02 0.999863L1368.02 0.999878L1368.01 2001L1364.01 2001L1364.02 0.999863Z" id="Rectangle-9-Copy-6" fill="#639cb4" fill-rule="evenodd" stroke="none" />
        <path d="M1240.02 0.999375L1244.02 0.99939L1244.01 2001L1240.01 2001L1240.02 0.999375Z" id="Rectangle-10-Copy-6" fill="#639cb4" fill-rule="evenodd" stroke="none" />
        <path d="M1116.02 0.998887L1120.02 0.998901L1120.01 2001L1116.01 2001L1116.02 0.998887Z" id="Rectangle-11-Copy-6" fill="#639cb4" fill-rule="evenodd" stroke="none" />
        <path d="M992.015 0.998398L996.015 0.998413L996.008 2001L992.008 2001L992.015 0.998398Z" id="Rectangle-12-Copy-6" fill="#639cb4" fill-rule="evenodd" stroke="none" />
        <path d="M868.015 0.99791L872.015 0.997925L872.008 2001L868.008 2001L868.015 0.99791Z" id="Rectangle-13-Copy-6" fill="#639cb4" fill-rule="evenodd" stroke="none" />
        <path d="M744.015 0.997422L748.015 0.997437L748.008 2001L744.008 2001L744.015 0.997422Z" id="Rectangle-14-Copy-6" fill="#639cb4" fill-rule="evenodd" stroke="none" />
        <path d="M620.015 0.996934L624.015 0.996948L624.008 2001L620.008 2001L620.015 0.996934Z" id="Rectangle-9-Copy-7" fill="#639cb4" fill-rule="evenodd" stroke="none" />
        <path d="M496.015 0.996567L500.015 0.996582L500.008 2001L496.008 2001L496.015 0.996567Z" id="Rectangle-10-Copy-7" fill="#639cb4" fill-rule="evenodd" stroke="none" />
        <path d="M372.015 0.996079L376.015 0.996094L376.008 2001L372.008 2001L372.015 0.996079Z" id="Rectangle-11-Copy-7" fill="#639cb4" fill-rule="evenodd" stroke="none" />
        <path d="M248.015 0.995591L252.015 0.995605L252.008 2001L248.008 2001L248.015 0.995591Z" id="Rectangle-12-Copy-7" fill="#639cb4" fill-rule="evenodd" stroke="none" />
        <path d="M124.015 0.995102L128.015 0.995117L128.008 2001L124.008 2001L124.015 0.995102Z" id="Rectangle-13-Copy-7" fill="#639cb4" fill-rule="evenodd" stroke="none" />
        <path d="M0.0151739 0.994614L4.01513 0.994629L4.00757 2000.99L0.00761032 2000.99L0.0151739 0.994614Z" id="Rectangle-14-Copy-7" fill="#639cb4" fill-rule="evenodd" stroke="none" />
        <path d="M0.00760597 996L0.00760551 992L2000.01 992L2000.01 996L0.00760597 996Z" id="Rectangle-11-Copy" fill="#639cb4" fill-rule="evenodd" stroke="none" />
        <path d="M1984.02 4L1984.02 4.19602e-05L3984.02 0L3984.02 3.99996L1984.02 4Z" id="Rectangle-15" fill="#639cb4" fill-rule="evenodd" stroke="none" />
        <path d="M1984.02 128L1984.02 124L3984.02 124L3984.02 128L1984.02 128Z" id="Rectangle-16" fill="#639cb4" fill-rule="evenodd" stroke="none" />
        <path d="M1984.02 252L1984.02 248L3984.02 248L3984.02 252L1984.02 252Z" id="Rectangle-17" fill="#639cb4" fill-rule="evenodd" stroke="none" />
        <path d="M1984.02 376L1984.02 372L3984.02 372L3984.02 376L1984.02 376Z" id="Rectangle-18" fill="#639cb4" fill-rule="evenodd" stroke="none" />
        <path d="M1984.02 500L1984.02 496L3984.02 496L3984.02 500L1984.02 500Z" id="Rectangle-19" fill="#639cb4" fill-rule="evenodd" stroke="none" />
        <path d="M1984.02 624L1984.02 620L3984.02 620L3984.02 624L1984.02 624Z" id="Rectangle-20" fill="#639cb4" fill-rule="evenodd" stroke="none" />
        <path d="M1984.02 748L1984.02 744L3984.02 744L3984.02 748L1984.02 748Z" id="Rectangle-9-Copy-8" fill="#639cb4" fill-rule="evenodd" stroke="none" />
        <path d="M1984.02 872L1984.02 868L3984.02 868L3984.02 872L1984.02 872Z" id="Rectangle-10-Copy-8" fill="#639cb4" fill-rule="evenodd" stroke="none" />
        <path d="M1984.02 1120L1984.02 1116L3984.02 1116L3984.02 1120L1984.02 1120Z" id="Rectangle-12-Copy-8" fill="#639cb4" fill-rule="evenodd" stroke="none" />
        <path d="M1984.02 1244L1984.02 1240L3984.02 1240L3984.02 1244L1984.02 1244Z" id="Rectangle-13-Copy-8" fill="#639cb4" fill-rule="evenodd" stroke="none" />
        <path d="M1984.02 1368L1984.02 1364L3984.02 1364L3984.02 1368L1984.02 1368Z" id="Rectangle-14-Copy-8" fill="#639cb4" fill-rule="evenodd" stroke="none" />
        <path d="M1984.02 1492L1984.02 1488L3984.02 1488L3984.02 1492L1984.02 1492Z" id="Rectangle-9-Copy-9" fill="#639cb4" fill-rule="evenodd" stroke="none" />
        <path d="M1984.02 1616L1984.02 1612L3984.02 1612L3984.02 1616L1984.02 1616Z" id="Rectangle-10-Copy-9" fill="#639cb4" fill-rule="evenodd" stroke="none" />
        <path d="M1984.02 1740L1984.02 1736L3984.02 1736L3984.02 1740L1984.02 1740Z" id="Rectangle-11-Copy-8" fill="#639cb4" fill-rule="evenodd" stroke="none" />
        <path d="M1984.02 1864L1984.02 1860L3984.02 1860L3984.02 1864L1984.02 1864Z" id="Rectangle-12-Copy-9" fill="#639cb4" fill-rule="evenodd" stroke="none" />
        <path d="M3844.02 0.999985L3848.02 1L3848.01 2001L3844.01 2001L3844.02 0.999985Z" id="Rectangle-11-Copy-9" fill="#639cb4" fill-rule="evenodd" stroke="none" />
        <path d="M3720.02 0.999985L3724.02 1L3724.01 2001L3720.01 2001L3720.02 0.999985Z" id="Rectangle-12-Copy-10" fill="#639cb4" fill-rule="evenodd" stroke="none" />
        <path d="M3596.02 0.999985L3600.02 1L3600.01 2001L3596.01 2001L3596.02 0.999985Z" id="Rectangle-13-Copy-9" fill="#639cb4" fill-rule="evenodd" stroke="none" />
        <path d="M3472.02 0.999985L3476.02 1L3476.01 2001L3472.01 2001L3472.02 0.999985Z" id="Rectangle-14-Copy-9" fill="#639cb4" fill-rule="evenodd" stroke="none" />
        <path d="M3348.02 0.999985L3352.02 1L3352.01 2001L3348.01 2001L3348.02 0.999985Z" id="Rectangle-9-Copy-10" fill="#639cb4" fill-rule="evenodd" stroke="none" />
        <path d="M3224.02 0.999985L3228.02 1L3228.01 2001L3224.01 2001L3224.02 0.999985Z" id="Rectangle-10-Copy-10" fill="#639cb4" fill-rule="evenodd" stroke="none" />
        <path d="M3100.02 0.999985L3104.02 1L3104.01 2001L3100.01 2001L3100.02 0.999985Z" id="Rectangle-11-Copy-10" fill="#639cb4" fill-rule="evenodd" stroke="none" />
        <path d="M2976.02 0.999985L2980.02 1L2980.01 2001L2976.01 2001L2976.02 0.999985Z" id="Rectangle-12-Copy-11" fill="#639cb4" fill-rule="evenodd" stroke="none" />
        <path d="M2852.02 0.999985L2856.02 1L2856.01 2001L2852.01 2001L2852.02 0.999985Z" id="Rectangle-13-Copy-10" fill="#639cb4" fill-rule="evenodd" stroke="none" />
        <path d="M2728.02 0.999985L2732.02 1L2732.01 2001L2728.01 2001L2728.02 0.999985Z" id="Rectangle-14-Copy-10" fill="#639cb4" fill-rule="evenodd" stroke="none" />
        <path d="M2604.02 0.999985L2608.02 1L2608.01 2001L2604.01 2001L2604.02 0.999985Z" id="Rectangle-9-Copy-11" fill="#639cb4" fill-rule="evenodd" stroke="none" />
        <path d="M2480.02 0.999985L2484.02 1L2484.01 2001L2480.01 2001L2480.02 0.999985Z" id="Rectangle-10-Copy-11" fill="#639cb4" fill-rule="evenodd" stroke="none" />
        <path d="M2356.02 0.999985L2360.02 1L2360.01 2001L2356.01 2001L2356.02 0.999985Z" id="Rectangle-11-Copy-11" fill="#639cb4" fill-rule="evenodd" stroke="none" />
        <path d="M2232.02 0.999985L2236.02 1L2236.01 2001L2232.01 2001L2232.02 0.999985Z" id="Rectangle-12-Copy-12" fill="#639cb4" fill-rule="evenodd" stroke="none" />
        <path d="M2108.02 0.999985L2112.02 1L2112.01 2001L2108.01 2001L2108.02 0.999985Z" id="Rectangle-13-Copy-11" fill="#639cb4" fill-rule="evenodd" stroke="none" />
        <path d="M1984.02 0.999985L1988.02 1L1988.01 2001L1984.01 2001L1984.02 0.999985Z" id="Rectangle-14-Copy-11" fill="#639cb4" fill-rule="evenodd" stroke="none" />
        <path d="M1984.02 996L1984.02 992L3984.02 992L3984.02 996L1984.02 996Z" id="Rectangle-11-Copy-12" fill="#639cb4" fill-rule="evenodd" stroke="none" />
        <path d="M0.00760597 1988L0.00760551 1984L2000.01 1984L2000.01 1988L0.00760597 1988Z" id="Rectangle-21" fill="#639cb4" fill-rule="evenodd" stroke="none" />
        <path d="M0.00760597 2112L0.00760551 2108L2000.01 2108L2000.01 2112L0.00760597 2112Z" id="Rectangle-22" fill="#639cb4" fill-rule="evenodd" stroke="none" />
        <path d="M0.00760597 2236L0.00760551 2232L2000.01 2232L2000.01 2236L0.00760597 2236Z" id="Rectangle-23" fill="#639cb4" fill-rule="evenodd" stroke="none" />
        <path d="M0.00760597 2360L0.00760551 2356L2000.01 2356L2000.01 2360L0.00760597 2360Z" id="Rectangle-24" fill="#639cb4" fill-rule="evenodd" stroke="none" />
        <path d="M0.00760597 2484L0.00760551 2480L2000.01 2480L2000.01 2484L0.00760597 2484Z" id="Rectangle-25" fill="#639cb4" fill-rule="evenodd" stroke="none" />
        <path d="M0.00760597 2608L0.00760551 2604L2000.01 2604L2000.01 2608L0.00760597 2608Z" id="Rectangle-26" fill="#639cb4" fill-rule="evenodd" stroke="none" />
        <path d="M0.00760597 2732L0.00760551 2728L2000.01 2728L2000.01 2732L0.00760597 2732Z" id="Rectangle-9-Copy-12" fill="#639cb4" fill-rule="evenodd" stroke="none" />
        <path d="M0.00760597 2856L0.00760551 2852L2000.01 2852L2000.01 2856L0.00760597 2856Z" id="Rectangle-10-Copy-12" fill="#639cb4" fill-rule="evenodd" stroke="none" />
        <path d="M0.00760597 3104L0.00760551 3100L2000.01 3100L2000.01 3104L0.00760597 3104Z" id="Rectangle-12-Copy-13" fill="#639cb4" fill-rule="evenodd" stroke="none" />
        <path d="M0.00760597 3228L0.00760551 3224L2000.01 3224L2000.01 3228L0.00760597 3228Z" id="Rectangle-13-Copy-12" fill="#639cb4" fill-rule="evenodd" stroke="none" />
        <path d="M0.00760597 3352L0.00760551 3348L2000.01 3348L2000.01 3352L0.00760597 3352Z" id="Rectangle-14-Copy-12" fill="#639cb4" fill-rule="evenodd" stroke="none" />
        <path d="M0.00760597 3476L0.00760551 3472L2000.01 3472L2000.01 3476L0.00760597 3476Z" id="Rectangle-9-Copy-13" fill="#639cb4" fill-rule="evenodd" stroke="none" />
        <path d="M0.00760597 3600L0.00760551 3596L2000.01 3596L2000.01 3600L0.00760597 3600Z" id="Rectangle-10-Copy-13" fill="#639cb4" fill-rule="evenodd" stroke="none" />
        <path d="M0.00760597 3724L0.00760551 3720L2000.01 3720L2000.01 3724L0.00760597 3724Z" id="Rectangle-11-Copy-13" fill="#639cb4" fill-rule="evenodd" stroke="none" />
        <path d="M0.00760597 3848L0.00760551 3844L2000.01 3844L2000.01 3848L0.00760597 3848Z" id="Rectangle-12-Copy-14" fill="#639cb4" fill-rule="evenodd" stroke="none" />
        <path d="M1860.01 1985L1864.01 1985L1864 3985L1860 3985L1860.01 1985Z" id="Rectangle-11-Copy-14" fill="#639cb4" fill-rule="evenodd" stroke="none" />
        <path d="M1736.01 1985L1740.01 1985L1740 3985L1736 3985L1736.01 1985Z" id="Rectangle-12-Copy-15" fill="#639cb4" fill-rule="evenodd" stroke="none" />
        <path d="M1612.01 1985L1616.01 1985L1616 3985L1612 3985L1612.01 1985Z" id="Rectangle-13-Copy-13" fill="#639cb4" fill-rule="evenodd" stroke="none" />
        <path d="M1488.01 1985L1492.01 1985L1492 3985L1488 3985L1488.01 1985Z" id="Rectangle-14-Copy-13" fill="#639cb4" fill-rule="evenodd" stroke="none" />
        <path d="M1364.01 1985L1368.01 1985L1368 3985L1364 3985L1364.01 1985Z" id="Rectangle-9-Copy-14" fill="#639cb4" fill-rule="evenodd" stroke="none" />
        <path d="M1240.01 1985L1244.01 1985L1244 3985L1240 3985L1240.01 1985Z" id="Rectangle-10-Copy-14" fill="#639cb4" fill-rule="evenodd" stroke="none" />
        <path d="M1116.01 1985L1120.01 1985L1120 3985L1116 3985L1116.01 1985Z" id="Rectangle-11-Copy-15" fill="#639cb4" fill-rule="evenodd" stroke="none" />
        <path d="M992.008 1985L996.008 1985L996 3985L992 3985L992.008 1985Z" id="Rectangle-12-Copy-16" fill="#639cb4" fill-rule="evenodd" stroke="none" />
        <path d="M868.008 1985L872.008 1985L872 3985L868 3985L868.008 1985Z" id="Rectangle-13-Copy-14" fill="#639cb4" fill-rule="evenodd" stroke="none" />
        <path d="M744.008 1985L748.008 1985L748 3985L744 3985L744.008 1985Z" id="Rectangle-14-Copy-14" fill="#639cb4" fill-rule="evenodd" stroke="none" />
        <path d="M620.008 1985L624.008 1985L624 3985L620 3985L620.008 1985Z" id="Rectangle-9-Copy-15" fill="#639cb4" fill-rule="evenodd" stroke="none" />
        <path d="M496.008 1985L500.008 1985L500 3985L496 3985L496.008 1985Z" id="Rectangle-10-Copy-15" fill="#639cb4" fill-rule="evenodd" stroke="none" />
        <path d="M372.008 1985L376.008 1985L376 3985L372 3985L372.008 1985Z" id="Rectangle-11-Copy-16" fill="#639cb4" fill-rule="evenodd" stroke="none" />
        <path d="M248.008 1985L252.008 1985L252 3985L248 3985L248.008 1985Z" id="Rectangle-12-Copy-17" fill="#639cb4" fill-rule="evenodd" stroke="none" />
        <path d="M124.008 1985L128.008 1985L128 3985L124 3985L124.008 1985Z" id="Rectangle-13-Copy-15" fill="#639cb4" fill-rule="evenodd" stroke="none" />
        <path d="M0.00760555 1985L4.00756 1985L4 3985L4.19617e-05 3985L0.00760555 1985Z" id="Rectangle-14-Copy-15" fill="#639cb4" fill-rule="evenodd" stroke="none" />
        <path d="M0.00760597 2980L0.00760551 2976L2000.01 2976L2000.01 2980L0.00760597 2980Z" id="Rectangle-11-Copy-17" fill="#639cb4" fill-rule="evenodd" stroke="none" />
        <path d="M1984.01 1988L1984.01 1984L3984.01 1984L3984.01 1988L1984.01 1988Z" id="Rectangle-27" fill="#639cb4" fill-rule="evenodd" stroke="none" />
        <path d="M1984.01 2112L1984.01 2108L3984.01 2108L3984.01 2112L1984.01 2112Z" id="Rectangle-28" fill="#639cb4" fill-rule="evenodd" stroke="none" />
        <path d="M1984.01 2236L1984.01 2232L3984.01 2232L3984.01 2236L1984.01 2236Z" id="Rectangle-29" fill="#639cb4" fill-rule="evenodd" stroke="none" />
        <path d="M1984.01 2360L1984.01 2356L3984.01 2356L3984.01 2360L1984.01 2360Z" id="Rectangle-30" fill="#639cb4" fill-rule="evenodd" stroke="none" />
        <path d="M1984.01 2484L1984.01 2480L3984.01 2480L3984.01 2484L1984.01 2484Z" id="Rectangle-31" fill="#639cb4" fill-rule="evenodd" stroke="none" />
        <path d="M1984.01 2608L1984.01 2604L3984.01 2604L3984.01 2608L1984.01 2608Z" id="Rectangle-32" fill="#639cb4" fill-rule="evenodd" stroke="none" />
        <path d="M1984.01 2732L1984.01 2728L3984.01 2728L3984.01 2732L1984.01 2732Z" id="Rectangle-9-Copy-16" fill="#639cb4" fill-rule="evenodd" stroke="none" />
        <path d="M1984.01 2856L1984.01 2852L3984.01 2852L3984.01 2856L1984.01 2856Z" id="Rectangle-10-Copy-16" fill="#639cb4" fill-rule="evenodd" stroke="none" />
        <path d="M1984.01 3104L1984.01 3100L3984.01 3100L3984.01 3104L1984.01 3104Z" id="Rectangle-12-Copy-18" fill="#639cb4" fill-rule="evenodd" stroke="none" />
        <path d="M1984.01 3228L1984.01 3224L3984.01 3224L3984.01 3228L1984.01 3228Z" id="Rectangle-13-Copy-16" fill="#639cb4" fill-rule="evenodd" stroke="none" />
        <path d="M1984.01 3352L1984.01 3348L3984.01 3348L3984.01 3352L1984.01 3352Z" id="Rectangle-14-Copy-16" fill="#639cb4" fill-rule="evenodd" stroke="none" />
        <path d="M1984.01 3476L1984.01 3472L3984.01 3472L3984.01 3476L1984.01 3476Z" id="Rectangle-9-Copy-17" fill="#639cb4" fill-rule="evenodd" stroke="none" />
        <path d="M1984.01 3600L1984.01 3596L3984.01 3596L3984.01 3600L1984.01 3600Z" id="Rectangle-10-Copy-17" fill="#639cb4" fill-rule="evenodd" stroke="none" />
        <path d="M1984.01 3724L1984.01 3720L3984.01 3720L3984.01 3724L1984.01 3724Z" id="Rectangle-11-Copy-18" fill="#639cb4" fill-rule="evenodd" stroke="none" />
        <path d="M3720.01 1985L3724.01 1985L3724 3985L3720 3985L3720.01 1985Z" id="Rectangle-12-Copy-20" fill="#639cb4" fill-rule="evenodd" stroke="none" />
        <path d="M3596.01 1985L3600.01 1985L3600 3985L3596 3985L3596.01 1985Z" id="Rectangle-13-Copy-17" fill="#639cb4" fill-rule="evenodd" stroke="none" />
        <path d="M3472.01 1985L3476.01 1985L3476 3985L3472 3985L3472.01 1985Z" id="Rectangle-14-Copy-17" fill="#639cb4" fill-rule="evenodd" stroke="none" />
        <path d="M3348.01 1985L3352.01 1985L3352 3985L3348 3985L3348.01 1985Z" id="Rectangle-9-Copy-18" fill="#639cb4" fill-rule="evenodd" stroke="none" />
        <path d="M3224.01 1985L3228.01 1985L3228 3985L3224 3985L3224.01 1985Z" id="Rectangle-10-Copy-18" fill="#639cb4" fill-rule="evenodd" stroke="none" />
        <path d="M3100.01 1985L3104.01 1985L3104 3985L3100 3985L3100.01 1985Z" id="Rectangle-11-Copy-20" fill="#639cb4" fill-rule="evenodd" stroke="none" />
        <path d="M2976.01 1985L2980.01 1985L2980 3985L2976 3985L2976.01 1985Z" id="Rectangle-12-Copy-21" fill="#639cb4" fill-rule="evenodd" stroke="none" />
        <path d="M2852.01 1985L2856.01 1985L2856 3985L2852 3985L2852.01 1985Z" id="Rectangle-13-Copy-18" fill="#639cb4" fill-rule="evenodd" stroke="none" />
        <path d="M2728.01 1985L2732.01 1985L2732 3985L2728 3985L2728.01 1985Z" id="Rectangle-14-Copy-18" fill="#639cb4" fill-rule="evenodd" stroke="none" />
        <path d="M2604.01 1985L2608.01 1985L2608 3985L2604 3985L2604.01 1985Z" id="Rectangle-9-Copy-19" fill="#639cb4" fill-rule="evenodd" stroke="none" />
        <path d="M2480.01 1985L2484.01 1985L2484 3985L2480 3985L2480.01 1985Z" id="Rectangle-10-Copy-19" fill="#639cb4" fill-rule="evenodd" stroke="none" />
        <path d="M2356.01 1985L2360.01 1985L2360 3985L2356 3985L2356.01 1985Z" id="Rectangle-11-Copy-21" fill="#639cb4" fill-rule="evenodd" stroke="none" />
        <path d="M2232.01 1985L2236.01 1985L2236 3985L2232 3985L2232.01 1985Z" id="Rectangle-12-Copy-22" fill="#639cb4" fill-rule="evenodd" stroke="none" />
        <path d="M2108.01 1985L2112.01 1985L2112 3985L2108 3985L2108.01 1985Z" id="Rectangle-13-Copy-19" fill="#639cb4" fill-rule="evenodd" stroke="none" />
        <path d="M1984.01 1985L1988.01 1985L1988 3985L1984 3985L1984.01 1985Z" id="Rectangle-14-Copy-19" fill="#639cb4" fill-rule="evenodd" stroke="none" />
        <path d="M1984.01 2980L1984.01 2976L3984.01 2976L3984.01 2980L1984.01 2980Z" id="Rectangle-11-Copy-22" fill="#639cb4" fill-rule="evenodd" stroke="none" />
      </g>
    </g>
  </g>
</svg>
