<?xml version="1.0" encoding="utf-8"?>
<svg width="607px" height="607px" viewBox="0 0 607 607" version="1.1" xmlns:xlink="http://www.w3.org/1999/xlink" xmlns="http://www.w3.org/2000/svg">
  <defs>
    <path d="M0 0L607 0L607 607L0 607L0 0L0 0Z" id="path_1" />
    <clipPath id="mask_1">
      <use xlink:href="#path_1" />
    </clipPath>
  </defs>
  <g id="kofi">
    <path d="M0 0L607 0L607 607L0 607L0 0L0 0Z" id="Mask" fill="none" fill-rule="evenodd" stroke="none" />
    <g clip-path="url(#mask_1)">
      <g id="g20" transform="translate(-1.5258789E-05 110)">
        <path d="M604.501 116.193C596.077 71.6947 572.123 43.9747 547.573 26.8347C522.185 9.10934 491.775 0 460.811 0L21.3639 0C6.0759 0 0.219879 14.9253 0.162567 22.4013C0.154572 23.376 0.190582 27.2773 0.190582 27.2773C0.190582 27.2773 -0.530731 221.695 0.833221 325.535C4.97989 386.839 66.4039 386.819 66.4039 386.819C66.4039 386.819 266.941 386.231 363.116 385.633C367.627 385.605 372.133 385.119 376.508 384.024C431.265 370.325 436.931 319.453 436.345 291.096C546.412 297.211 624.068 219.545 604.501 116.193M480.861 217.093C457.388 220.027 438.316 217.825 438.316 217.825L438.316 74.0973L467.199 74.0973C486.288 74.0973 504.703 82.0467 517.157 96.5107C525.925 106.695 532.94 121.028 532.94 140.828C532.94 189.225 508.001 208.293 480.861 217.093" id="path22" fill="#FFFFFF" fill-rule="evenodd" stroke="none" />
      </g>
      <g id="g24" transform="translate(93.506714 200.54523)">
        <path d="M121.911 215.648C126.691 218.056 129.745 215.065 129.745 215.065C129.745 215.065 199.687 151.228 231.196 114.463C259.222 81.5748 261.05 26.1508 212.92 5.44141C164.791 -15.2666 125.193 29.8041 125.193 29.8041C90.8539 -7.96259 38.8819 -6.05059 14.8432 19.5081C-9.19414 45.0681 -0.799469 88.9388 17.1325 113.353C33.9659 136.273 107.957 202.22 119.171 213.373C119.171 213.373 119.989 214.228 121.911 215.648" id="path26" fill="#FF5E5B" fill-rule="evenodd" stroke="none" />
      </g>
    </g>
  </g>
</svg>