<?xml version="1.0" encoding="utf-8"?>
<svg width="162px" height="158px" viewBox="0 0 162 158" version="1.1" xmlns:xlink="http://www.w3.org/1999/xlink" xmlns="http://www.w3.org/2000/svg">
  <path d="M80.518 3.05176e-05C36.055 3.05176e-05 0 36.047 0 80.516C0 116.091 23.071 146.272 55.063 156.919C59.087 157.664 60.564 155.172 60.564 153.046C60.564 151.126 60.49 144.783 60.455 138.055C38.055 142.925 33.328 128.555 33.328 128.555C29.666 119.248 24.388 116.774 24.388 116.774C17.083 111.776 24.939 111.879 24.939 111.879C33.024 112.446 37.282 120.176 37.282 120.176C44.463 132.486 56.118 128.927 60.7119 126.87C61.4349 121.667 63.5219 118.112 65.8239 116.103C47.9399 114.067 29.14 107.163 29.14 76.311C29.14 67.521 32.2859 60.338 37.4359 54.699C36.5999 52.669 33.8439 44.482 38.2159 33.391C38.2159 33.391 44.9779 31.227 60.364 41.644C66.787 39.86 73.675 38.966 80.518 38.935C87.36 38.965 94.2539 39.86 100.688 41.645C116.056 31.227 122.808 33.391 122.808 33.391C127.191 44.481 124.434 52.67 123.598 54.699C128.76 60.338 131.884 67.52 131.884 76.311C131.884 107.236 113.048 114.046 95.119 116.039C98.007 118.538 100.58 123.438 100.58 130.949C100.58 141.722 100.487 150.392 100.487 153.046C100.487 155.188 101.937 157.699 106.017 156.908C137.992 146.25 161.034 116.079 161.034 80.516C161.034 36.047 124.984 0 80.518 0" id="Shape-path" fill="#FFFFFF" fill-rule="evenodd" stroke="none" />
</svg>