<?xml version="1.0" encoding="utf-8"?>
<svg width="44px" height="43px" viewBox="0 0 44 43" version="1.1" xmlns:xlink="http://www.w3.org/1999/xlink" xmlns="http://www.w3.org/2000/svg">
  <path d="M21.717 0C9.72499 0 0 9.724 0 21.72C0 31.314 6.22301 39.456 14.853 42.329C15.94 42.528 16.336 41.857 16.336 41.281C16.336 40.765 16.317 39.4 16.306 37.588C10.266 38.9 8.991 34.676 8.991 34.676C8.00299 32.166 6.57899 31.498 6.57899 31.498C4.60699 30.152 6.728 30.178 6.728 30.178C8.90799 30.332 10.055 32.417 10.055 32.417C11.992 35.736 15.139 34.777 16.376 34.221C16.573 32.818 17.135 31.861 17.755 31.318C12.932 30.769 7.86099 28.906 7.86099 20.584C7.86099 18.212 8.70799 16.274 10.097 14.756C9.87299 14.206 9.12799 11.998 10.311 9.008C10.311 9.008 12.133 8.424 16.283 11.233C18.015 10.752 19.873 10.512 21.72 10.503C23.565 10.512 25.423 10.752 27.157 11.233C31.304 8.423 33.124 9.008 33.124 9.008C34.309 11.998 33.564 14.206 33.341 14.756C34.733 16.274 35.573 18.212 35.573 20.584C35.573 28.928 30.495 30.764 25.657 31.301C26.436 31.971 27.131 33.297 27.131 35.324C27.131 38.226 27.104 40.569 27.104 41.281C27.104 41.862 27.496 42.538 28.597 42.326C37.221 39.448 43.439 31.313 43.439 21.72C43.439 9.724 33.713 0 21.717 0" id="Shape-path" fill="#1B1817" fill-rule="evenodd" stroke="none" />
</svg>