<?xml version="1.0" encoding="utf-8"?>
<svg width="616px" height="611px" viewBox="0 0 616 611" version="1.1" xmlns:xlink="http://www.w3.org/1999/xlink" xmlns="http://www.w3.org/2000/svg">
  <defs>
    <path d="M0 0L616 0L616 610.706L0 610.706L0 0Z" id="path_1" />
    <clipPath id="mask_1">
      <use xlink:href="#path_1" />
    </clipPath>
  </defs>
  <path d="M480.849 217.088C457.375 220.021 438.305 217.82 438.305 217.82L438.305 217.82L438.305 74.0955L438.305 74.0955L467.187 74.0955C486.276 74.0955 504.689 82.0446 517.144 96.5083C525.912 106.692 532.927 121.025 532.927 140.824C532.927 189.221 507.989 208.288 480.849 217.088M604.486 116.19C596.061 71.6929 572.107 43.9736 547.56 26.834C522.172 9.10913 491.761 0 460.798 0L460.798 0L21.362 0C6.07575 0 0.21991 14.925 0.161232 22.4008C0.154556 23.3754 0.190567 27.2766 0.190567 27.2766C0.190567 27.2766 -0.530724 221.689 0.833214 325.527C4.97979 386.829 66.4023 386.809 66.4023 386.809C66.4023 386.809 266.935 386.221 363.107 385.624C367.617 385.596 372.123 385.109 376.499 384.014C431.254 370.316 436.92 319.445 436.334 291.089C546.397 297.203 624.052 219.54 604.486 116.19" transform="translate(4.731346 127.997955)" id="Shape" fill="#FFFFFF" fill-rule="evenodd" stroke="#323A47" stroke-width="7" />
  <path d="M121.909 215.643C126.689 218.051 129.742 215.06 129.742 215.06C129.742 215.06 199.683 151.224 231.191 114.46C259.216 81.5727 261.044 26.1501 212.916 5.44128C164.788 -15.2662 125.19 29.8034 125.19 29.8034C90.8509 -7.96234 38.8816 -6.05042 14.8422 19.5076C-9.19324 45.067 -0.800095 88.9366 17.1328 113.351C33.9657 136.27 107.955 202.215 119.169 213.368C119.169 213.368 119.986 214.223 121.909 215.643" transform="translate(98.235 218.5409)" id="Shape" fill="#FF5E5B" fill-rule="evenodd" stroke="none" />
  <path d="M0 0L616 0L616 610.706L0 610.706L0 0Z" id="Background" fill="none" fill-rule="evenodd" stroke="none" />
</svg>